HIERARCHY
ROOT joint_Root
{
	OFFSET 0.0 0.0 0.0
	CHANNELS 6 Xposition Yposition Zposition Zrotation Xrotation Yrotation 
	JOINT Hips
	{
		OFFSET -0.726466 93.3139 -2.00062
		CHANNELS 6 Xposition Yposition Zposition Zrotation Xrotation Yrotation 
		JOINT Spine
		{
			OFFSET 15.7357 0.0 0.0
			CHANNELS 6 Xposition Yposition Zposition Zrotation Xrotation Yrotation 
			JOINT Chest
			{
				OFFSET 8.98455 -0.406207 0.0
				CHANNELS 6 Xposition Yposition Zposition Zrotation Xrotation Yrotation 
				JOINT Neck
				{
					OFFSET 16.3773 0.0 0.0
					CHANNELS 6 Xposition Yposition Zposition Zrotation Xrotation Yrotation 
					JOINT Head
					{
						OFFSET 6.45672 0.0 0.0
						CHANNELS 6 Xposition Yposition Zposition Zrotation Xrotation Yrotation 
						End Site
						{
							OFFSET 0.0 0.0 0.0
						}
					}
				}
				JOINT Shoulder_L
				{
					OFFSET 12.9942 -0.242716 4.98039
					CHANNELS 6 Xposition Yposition Zposition Zrotation Xrotation Yrotation 
					JOINT UpperArm_L
					{
						OFFSET 5.34809 0.0 0.0
						CHANNELS 6 Xposition Yposition Zposition Zrotation Xrotation Yrotation 
						JOINT LowerArm_L
						{
							OFFSET 24.3286 1.87007e-05 0.0
							CHANNELS 6 Xposition Yposition Zposition Zrotation Xrotation Yrotation 
							JOINT Hand_L
							{
								OFFSET 22.2916 0.0 0.0
								CHANNELS 6 Xposition Yposition Zposition Zrotation Xrotation Yrotation 
								End Site
								{
									OFFSET 0.0 0.0 0.0
								}
							}
						}
					}
				}
				JOINT Shoulder_R
				{
					OFFSET 12.9945 -0.242716 -4.98039
					CHANNELS 6 Xposition Yposition Zposition Zrotation Xrotation Yrotation 
					JOINT UpperArm_R
					{
						OFFSET -5.34813 0.0 0.0
						CHANNELS 6 Xposition Yposition Zposition Zrotation Xrotation Yrotation 
						JOINT LowerArm_R
						{
							OFFSET -24.3289 0.000322201 0.0
							CHANNELS 6 Xposition Yposition Zposition Zrotation Xrotation Yrotation 
							JOINT Hand_R
							{
								OFFSET -22.2915 -0.000108084 0.0
								CHANNELS 6 Xposition Yposition Zposition Zrotation Xrotation Yrotation 
								End Site
								{
									OFFSET 0.0 0.0 0.0
								}
							}
						}
					}
				}
			}
		}
		JOINT UpperLeg_L
		{
			OFFSET -2.19248 -6.46944 0.0
			CHANNELS 6 Xposition Yposition Zposition Zrotation Xrotation Yrotation 
			JOINT LowerLeg_L
			{
				OFFSET 39.0811 0.0 -1.23785e-05
				CHANNELS 6 Xposition Yposition Zposition Zrotation Xrotation Yrotation 
				JOINT Foot_L
				{
					OFFSET 40.9854 0.0 -1.26872e-05
					CHANNELS 6 Xposition Yposition Zposition Zrotation Xrotation Yrotation 
					JOINT Toes_L
					{
						OFFSET 11.7543 0.0 0.0
						CHANNELS 6 Xposition Yposition Zposition Zrotation Xrotation Yrotation 
						End Site
						{
							OFFSET 0.0 0.0 0.0
						}
					}
				}
			}
		}
		JOINT UpperLeg_R
		{
			OFFSET -2.19251 6.46944 0.0
			CHANNELS 6 Xposition Yposition Zposition Zrotation Xrotation Yrotation 
			JOINT LowerLeg_R
			{
				OFFSET -39.0811 -0.00228153 -0.0401928
				CHANNELS 6 Xposition Yposition Zposition Zrotation Xrotation Yrotation 
				JOINT Foot_R
				{
					OFFSET -40.9854 0.0 0.0
					CHANNELS 6 Xposition Yposition Zposition Zrotation Xrotation Yrotation 
					JOINT Toes_R
					{
						OFFSET -11.7543 0.0 0.0
						CHANNELS 6 Xposition Yposition Zposition Zrotation Xrotation Yrotation 
						End Site
						{
							OFFSET 0.0 0.0 0.0
						}
					}
				}
			}
		}
	}
}
MOTION
Frames:	9
Frame Time:	0.0333333
0.000000 0.000000 0.000000 0.000000 0.000000 -0.000000 -1.143940 91.898900 0.976850 87.505300 0.037918 1.656890 15.735700 0.000005 -0.000001 82.115300 86.730800 -81.713900 8.984550 -0.406207 -0.000000 -1.286150 -0.928437 0.792149 16.377300 -0.000001 -0.000001 2.297670 -1.932150 -0.408292 6.456720 -0.000001 -0.000000 -0.119307 -0.297606 3.862900 12.994200 -0.242716 4.980390 -89.680500 -0.919417 -70.833700 5.348090 -0.000007 -0.000001 -66.158100 33.851600 -9.113590 24.328600 0.000019 0.000005 2.825400 4.729390 -30.903400 22.291600 -0.000001 0.000005 4.827820 5.638980 -14.040900 12.994500 -0.242716 -4.980390 87.379800 6.630800 -68.380600 -5.348130 -0.000001 -0.000004 -64.669700 25.973000 -7.335230 -24.328900 0.000322 -0.000009 -1.957240 -3.872830 -26.824900 -22.291500 -0.000108 -0.000004 2.597050 5.532320 -7.897620 -2.192480 -6.469440 -0.000000 -167.762000 -15.475200 -2.102440 39.081100 -0.000007 -0.000012 -0.193996 0.528728 20.148900 40.985400 -0.000006 -0.000013 -7.078830 4.573350 -64.249800 11.754300 -0.000000 0.000003 -0.000184 -0.001729 -16.642900 -2.192510 6.469440 -0.000001 174.633000 20.602300 179.839000 -39.081100 -0.002282 -0.040193 -0.029779 0.098939 18.499100 -40.985400 0.000008 0.000006 -3.187850 2.277970 -64.519900 -11.754300 -0.000006 -0.000006 -0.004727 -0.058796 -18.965200
0.000000 0.000000 0.000000 0.000000 0.000000 -0.000000 -1.140190 91.899900 0.942618 87.464900 -0.017087 1.695890 15.735700 0.000005 -0.000001 81.836500 86.711100 -81.434000 8.984550 -0.406207 -0.000000 -1.251330 -0.965522 0.794128 16.377300 -0.000001 -0.000001 2.247240 -1.865020 -0.489429 6.456720 -0.000001 -0.000000 -0.155646 -0.188959 3.812680 12.994200 -0.242716 4.980390 -89.657100 -0.983565 -70.779100 5.348090 -0.000007 -0.000001 -65.540200 34.761400 -9.274290 24.328600 0.000019 0.000005 2.853600 4.677830 -31.433400 22.291600 -0.000001 0.000005 4.652880 5.640100 -14.135200 12.994500 -0.242716 -4.980390 87.397700 6.557090 -68.297000 -5.348130 -0.000001 -0.000004 -64.044100 25.926500 -7.954880 -24.328900 0.000322 -0.000009 -2.097280 -4.145090 -26.856500 -22.291500 -0.000108 -0.000004 2.305260 5.529850 -7.788310 -2.192480 -6.469440 -0.000000 -167.700000 -15.490700 -2.078220 39.081100 -0.000007 -0.000012 -0.197570 0.537788 20.172400 40.985400 -0.000006 -0.000013 -7.090460 4.550990 -64.249300 11.754300 -0.000000 0.000003 -0.000184 -0.001722 -16.642700 -2.192510 6.469440 -0.000001 174.667000 20.586000 179.842000 -39.081100 -0.002282 -0.040193 -0.028346 0.094649 18.500500 -40.985400 0.000008 0.000006 -3.145370 2.348570 -64.491600 -11.754300 -0.000006 -0.000006 -0.004643 -0.057969 -18.931500
0.000000 0.000000 0.000000 0.000000 0.000000 -0.000000 -1.140670 91.899700 0.912553 87.461600 -0.096215 1.765910 15.735700 0.000005 -0.000001 81.267100 86.683300 -80.881900 8.984550 -0.406207 -0.000000 -1.206000 -1.037080 0.759197 16.377300 -0.000001 -0.000001 2.222580 -1.718450 -0.560680 6.456720 -0.000001 -0.000000 -0.251601 -0.031487 3.724310 12.994200 -0.242716 4.980390 -89.633100 -1.048080 -70.702300 5.348090 -0.000007 -0.000001 -64.353000 36.486700 -9.618180 24.328600 0.000019 0.000005 3.114380 4.932780 -32.323300 22.291600 -0.000001 0.000005 4.476030 5.644770 -14.535800 12.994500 -0.242716 -4.980390 87.424800 6.464230 -68.223700 -5.348130 -0.000001 -0.000004 -63.079800 25.689500 -8.822510 -24.328900 0.000322 -0.000009 -1.988110 -3.899880 -27.026900 -22.291500 -0.000108 -0.000004 2.214930 5.525180 -7.585190 -2.192480 -6.469440 -0.000000 -167.688000 -15.470200 -2.007350 39.081100 -0.000007 -0.000012 -0.196397 0.534145 20.188000 40.985400 -0.000006 -0.000013 -7.090690 4.508350 -64.263100 11.754300 -0.000000 0.000003 -0.000178 -0.001679 -16.641100 -2.192510 6.469440 -0.000001 174.637000 20.597600 179.873000 -39.081100 -0.002282 -0.040193 -0.029605 0.098251 18.528500 -40.985400 0.000008 0.000006 -3.146580 2.421230 -64.471400 -11.754300 -0.000006 -0.000006 -0.004575 -0.057293 -18.904000
0.000000 0.000000 0.000000 0.000000 0.000000 -0.000000 -1.131620 91.903300 0.882072 87.460700 -0.205405 1.835820 15.735700 0.000005 -0.000001 81.120900 86.658600 -80.771100 8.984550 -0.406207 -0.000000 -1.160090 -1.058510 0.688513 16.377300 -0.000001 -0.000001 2.157520 -1.639410 -0.658475 6.456720 -0.000001 -0.000000 -0.334218 0.092567 3.679630 12.994200 -0.242716 4.980390 -89.606900 -1.122590 -70.698000 5.348090 -0.000007 -0.000001 -62.603800 38.782300 -10.098600 24.328600 0.000019 0.000005 3.565660 5.349570 -33.755600 22.291600 -0.000001 0.000005 4.349560 5.650620 -15.076900 12.994500 -0.242716 -4.980390 87.437600 6.402620 -68.134100 -5.348130 -0.000001 -0.000004 -61.795300 25.129600 -9.827800 -24.328900 0.000322 -0.000009 -1.910280 -3.676710 -27.465600 -22.291500 -0.000108 -0.000004 2.602650 5.523110 -7.495480 -2.192480 -6.469440 -0.000000 -167.674000 -15.532800 -1.935010 39.081100 -0.000007 -0.000012 -0.196175 0.533480 20.190100 40.985400 -0.000006 -0.000013 -7.093970 4.446130 -64.249600 11.754300 -0.000000 0.000003 -0.000174 -0.001643 -16.639800 -2.192510 6.469440 -0.000001 174.625000 20.501800 179.900000 -39.081100 -0.002282 -0.040193 -0.028520 0.094914 18.547000 -40.985400 0.000008 0.000006 -3.069980 2.459180 -64.460800 -11.754300 -0.000006 -0.000006 -0.004763 -0.059157 -18.979900
0.000000 0.000000 0.000000 0.000000 0.000000 -0.000000 -1.121550 91.910500 0.845348 87.460400 -0.278524 1.900520 15.735700 0.000005 -0.000001 80.688800 86.635100 -80.379400 8.984550 -0.406207 -0.000000 -1.121940 -1.112610 0.607664 16.377300 -0.000001 -0.000001 2.056030 -1.554610 -0.717448 6.456720 -0.000001 -0.000000 -0.430698 0.165938 3.557860 12.994200 -0.242716 4.980390 -89.576900 -1.205310 -70.655000 5.348090 -0.000007 -0.000001 -60.299400 41.556700 -10.805600 24.328600 0.000019 0.000005 3.670320 5.132010 -35.646300 22.291600 -0.000001 0.000005 4.314350 5.655330 -15.545200 12.994500 -0.242716 -4.980390 87.442300 6.365480 -68.055600 -5.348130 -0.000001 -0.000004 -60.158500 24.106900 -10.964000 -24.328900 0.000322 -0.000009 -2.098890 -3.892510 -28.350300 -22.291500 -0.000108 -0.000004 3.191980 5.519880 -7.356660 -2.192480 -6.469440 -0.000000 -167.681000 -15.547200 -1.875600 39.081100 -0.000007 -0.000012 -0.194199 0.528234 20.185700 40.985400 -0.000006 -0.000013 -7.082010 4.388890 -64.236500 11.754300 -0.000000 0.000003 -0.000180 -0.001698 -16.641800 -2.192510 6.469440 -0.000001 174.603000 20.559100 179.933000 -39.081100 -0.002282 -0.040193 -0.026075 0.087663 18.539700 -40.985400 0.000008 0.000006 -3.070090 2.515680 -64.409800 -11.754300 -0.000006 -0.000006 -0.004920 -0.060693 -19.042500
0.000000 0.000000 0.000000 0.000000 0.000000 -0.000000 -1.091290 91.906300 0.792515 87.430200 -0.366709 1.981830 15.735700 0.000005 -0.000001 80.277900 86.609200 -80.001400 8.984550 -0.406207 -0.000000 -1.079070 -1.166280 0.541980 16.377300 -0.000001 -0.000001 1.987240 -1.439510 -0.811433 6.456720 -0.000001 -0.000000 -0.621897 0.260043 3.429470 12.994200 -0.242716 4.980390 -89.530300 -1.331780 -70.571100 5.348090 -0.000007 -0.000001 -57.741300 44.279300 -11.599700 24.328600 0.000019 0.000005 3.961830 5.078330 -38.039200 22.291600 -0.000001 0.000005 4.389050 5.661560 -16.233300 12.994500 -0.242716 -4.980390 87.469900 6.275990 -67.990900 -5.348130 -0.000001 -0.000004 -58.291500 22.497300 -12.233400 -24.328900 0.000322 -0.000009 -2.285340 -4.008400 -29.710200 -22.291500 -0.000108 -0.000004 3.597820 5.513970 -7.108970 -2.192480 -6.469440 -0.000000 -167.651000 -15.534900 -1.859580 39.081100 -0.000007 -0.000012 -0.196276 0.530762 20.294700 40.985400 -0.000006 -0.000013 -7.072930 4.315760 -64.278900 11.754300 -0.000000 0.000003 -0.000178 -0.001681 -16.641200 -2.192510 6.469440 -0.000001 174.584000 20.545900 179.956000 -39.081100 -0.002282 -0.040193 -0.026670 0.089234 18.579000 -40.985400 0.000008 0.000006 -3.042110 2.644430 -64.385400 -11.754300 -0.000006 -0.000006 -0.004700 -0.058531 -18.954400
0.000000 0.000000 0.000000 0.000000 0.000000 -0.000000 -1.047670 91.914000 0.710196 87.416900 -0.472947 1.971940 15.735700 0.000005 -0.000001 79.772600 86.618100 -79.536300 8.984550 -0.406207 -0.000000 -1.107220 -1.218980 0.460782 16.377300 -0.000001 -0.000001 1.869390 -1.348190 -0.869540 6.456720 -0.000001 -0.000000 -0.761148 0.376294 3.190910 12.994200 -0.242716 4.980390 -89.496200 -1.420320 -70.466600 5.348090 -0.000007 -0.000001 -54.728400 47.119600 -12.498200 24.328600 0.000019 0.000005 4.123140 4.749730 -41.045200 22.291600 -0.000001 0.000005 5.113920 5.670330 -17.421700 12.994500 -0.242716 -4.980390 87.501500 6.170940 -67.906900 -5.348130 -0.000001 -0.000004 -56.105100 20.612300 -13.737000 -24.328900 0.000322 -0.000009 -2.452580 -4.032270 -31.334400 -22.291500 -0.000108 -0.000004 4.902580 5.513410 -7.085030 -2.192480 -6.469440 -0.000000 -167.693000 -15.558900 -1.931080 39.081100 -0.000007 -0.000012 -0.196305 0.529141 20.354500 40.985400 -0.000006 -0.000013 -7.038420 4.234230 -64.282200 11.754300 -0.000000 0.000003 -0.000202 -0.001867 -16.648000 -2.192510 6.469440 -0.000001 174.604000 20.475600 179.848000 -39.081100 -0.002282 -0.040193 -0.025709 0.086305 18.593100 -40.985400 0.000008 0.000006 -2.991200 2.657600 -64.312100 -11.754300 -0.000006 -0.000006 -0.004654 -0.058074 -18.935800
0.000000 0.000000 0.000000 0.000000 0.000000 -0.000000 -0.991930 91.920100 0.644617 87.454200 -0.655823 2.003380 15.735700 0.000005 -0.000001 80.048600 86.610600 -79.880300 8.984550 -0.406207 -0.000000 -1.087580 -1.184200 0.325165 16.377300 -0.000001 -0.000001 1.683190 -1.239770 -0.932336 6.456720 -0.000001 -0.000000 -0.965638 0.450580 3.003790 12.994200 -0.242716 4.980390 -89.437400 -1.579290 -70.387800 5.348090 -0.000007 -0.000001 -51.134900 50.167500 -13.702500 24.328600 0.000019 0.000005 4.028070 4.070440 -44.773400 22.291600 -0.000001 0.000005 5.656860 5.676070 -18.478900 12.994500 -0.242716 -4.980390 87.553800 6.018440 -67.831600 -5.348130 -0.000001 -0.000004 -53.755600 18.318800 -15.442100 -24.328900 0.000322 -0.000009 -2.780600 -4.263190 -33.147100 -22.291500 -0.000108 -0.000004 6.582520 5.509350 -6.916150 -2.192480 -6.469440 -0.000000 -167.757000 -15.652400 -1.887400 39.081100 -0.000007 -0.000012 -0.196216 0.529040 20.349600 40.985400 -0.000006 -0.000013 -7.012460 4.154930 -64.274700 11.754300 -0.000000 0.000003 -0.000186 -0.001740 -16.643300 -2.192510 6.469440 -0.000001 174.545000 20.285700 179.798000 -39.081100 -0.002282 -0.040193 -0.025005 0.084197 18.596100 -40.985400 0.000008 0.000006 -3.087580 2.680380 -64.237300 -11.754300 -0.000006 -0.000006 -0.004965 -0.061121 -19.060000
0.000000 0.000000 0.000000 0.000000 0.000000 -0.000000 -0.923098 91.929200 0.573968 87.446800 -0.825070 2.018070 15.735700 0.000005 -0.000001 80.571400 86.602700 -80.469600 8.984550 -0.406207 -0.000000 -1.062290 -1.120690 0.193240 16.377300 -0.000001 -0.000001 1.471370 -1.168550 -0.965617 6.456720 -0.000001 -0.000000 -1.238470 0.484297 2.847810 12.994200 -0.242716 4.980390 -89.332400 -1.868100 -70.330000 5.348090 -0.000007 -0.000001 -47.326900 52.969400 -15.097800 24.328600 0.000019 0.000005 4.847170 4.204070 -49.149000 22.291600 -0.000001 0.000005 6.698690 5.681510 -20.153000 12.994500 -0.242716 -4.980390 87.645800 5.781050 -67.797000 -5.348130 -0.000001 -0.000004 -51.404700 15.559600 -17.212800 -24.328900 0.000322 -0.000009 -3.349020 -4.767170 -35.140100 -22.291500 -0.000108 -0.000004 7.790570 5.504590 -6.721230 -2.192480 -6.469440 -0.000000 -167.807000 -15.759900 -1.915870 39.081100 -0.000007 -0.000012 -0.196042 0.526759 20.413900 40.985400 -0.000006 -0.000013 -6.965180 4.054380 -64.286700 11.754300 -0.000000 0.000003 -0.000171 -0.001625 -16.639100 -2.192510 6.469440 -0.000001 174.541000 20.181100 179.716000 -39.081100 -0.002282 -0.040193 -0.022020 0.075293 18.603400 -40.985400 0.000008 0.000006 -2.993460 2.716070 -64.159900 -11.754300 -0.000006 -0.000006 -0.004880 -0.060301 -19.026500
